<mxfile host="Electron" agent="Mozilla/5.0 (Windows NT 10.0; Win64; x64) AppleWebKit/537.36 (KHTML, like Gecko) draw.io/24.7.17 Chrome/128.0.6613.36 Electron/32.0.1 Safari/537.36" version="24.7.17">
  <diagram id="C5RBs43oDa-KdzZeNtuy" name="Page-1">
    <mxGraphModel dx="1323" dy="2034" grid="1" gridSize="10" guides="1" tooltips="1" connect="1" arrows="1" fold="1" page="1" pageScale="1" pageWidth="827" pageHeight="1169" math="0" shadow="0">
      <root>
        <mxCell id="WIyWlLk6GJQsqaUBKTNV-0" />
        <mxCell id="WIyWlLk6GJQsqaUBKTNV-1" parent="WIyWlLk6GJQsqaUBKTNV-0" />
        <mxCell id="EZLxYyoNFG_LbMSAUpIx-0" value="" style="rounded=0;whiteSpace=wrap;html=1;rotation=-90;" vertex="1" parent="WIyWlLk6GJQsqaUBKTNV-1">
          <mxGeometry x="150" y="180" width="120" height="10" as="geometry" />
        </mxCell>
        <mxCell id="EZLxYyoNFG_LbMSAUpIx-2" value="" style="ellipse;whiteSpace=wrap;html=1;aspect=fixed;" vertex="1" parent="WIyWlLk6GJQsqaUBKTNV-1">
          <mxGeometry x="390.0000000000002" y="250" width="70" height="70" as="geometry" />
        </mxCell>
        <mxCell id="EZLxYyoNFG_LbMSAUpIx-3" value="llega auto arteria 1" style="text;html=1;align=center;verticalAlign=middle;resizable=0;points=[];autosize=1;strokeColor=none;fillColor=none;" vertex="1" parent="WIyWlLk6GJQsqaUBKTNV-1">
          <mxGeometry x="150" y="88" width="120" height="30" as="geometry" />
        </mxCell>
        <mxCell id="EZLxYyoNFG_LbMSAUpIx-4" value="" style="rounded=0;whiteSpace=wrap;html=1;rotation=-90;" vertex="1" parent="WIyWlLk6GJQsqaUBKTNV-1">
          <mxGeometry x="150" y="430" width="120" height="10" as="geometry" />
        </mxCell>
        <mxCell id="EZLxYyoNFG_LbMSAUpIx-5" value="llega auto arteria 2" style="text;html=1;align=center;verticalAlign=middle;resizable=0;points=[];autosize=1;strokeColor=none;fillColor=none;" vertex="1" parent="WIyWlLk6GJQsqaUBKTNV-1">
          <mxGeometry x="140" y="340" width="120" height="30" as="geometry" />
        </mxCell>
        <mxCell id="EZLxYyoNFG_LbMSAUpIx-9" value="Esperando entrar a rotonda" style="text;html=1;align=center;verticalAlign=middle;resizable=0;points=[];autosize=1;strokeColor=none;fillColor=none;" vertex="1" parent="WIyWlLk6GJQsqaUBKTNV-1">
          <mxGeometry x="355" y="200" width="170" height="30" as="geometry" />
        </mxCell>
        <mxCell id="EZLxYyoNFG_LbMSAUpIx-24" style="edgeStyle=orthogonalEdgeStyle;rounded=0;orthogonalLoop=1;jettySize=auto;html=1;exitX=0.557;exitY=0.867;exitDx=0;exitDy=0;entryX=0;entryY=0.5;entryDx=0;entryDy=0;exitPerimeter=0;" edge="1" parent="WIyWlLk6GJQsqaUBKTNV-1" source="EZLxYyoNFG_LbMSAUpIx-10" target="EZLxYyoNFG_LbMSAUpIx-22">
          <mxGeometry relative="1" as="geometry" />
        </mxCell>
        <mxCell id="EZLxYyoNFG_LbMSAUpIx-10" value="" style="rounded=0;whiteSpace=wrap;html=1;rotation=-90;" vertex="1" parent="WIyWlLk6GJQsqaUBKTNV-1">
          <mxGeometry x="460" y="300" width="360" height="10" as="geometry" />
        </mxCell>
        <mxCell id="EZLxYyoNFG_LbMSAUpIx-11" value="Se entra a rotonda" style="text;html=1;align=center;verticalAlign=middle;resizable=0;points=[];autosize=1;strokeColor=none;fillColor=none;" vertex="1" parent="WIyWlLk6GJQsqaUBKTNV-1">
          <mxGeometry x="550" y="88" width="120" height="30" as="geometry" />
        </mxCell>
        <mxCell id="EZLxYyoNFG_LbMSAUpIx-53" style="edgeStyle=orthogonalEdgeStyle;rounded=0;orthogonalLoop=1;jettySize=auto;html=1;exitX=0.5;exitY=0;exitDx=0;exitDy=0;entryX=1;entryY=0.5;entryDx=0;entryDy=0;" edge="1" parent="WIyWlLk6GJQsqaUBKTNV-1" source="EZLxYyoNFG_LbMSAUpIx-22" target="EZLxYyoNFG_LbMSAUpIx-26">
          <mxGeometry relative="1" as="geometry" />
        </mxCell>
        <mxCell id="EZLxYyoNFG_LbMSAUpIx-22" value="" style="ellipse;whiteSpace=wrap;html=1;aspect=fixed;" vertex="1" parent="WIyWlLk6GJQsqaUBKTNV-1">
          <mxGeometry x="850" y="245" width="80" height="80" as="geometry" />
        </mxCell>
        <mxCell id="EZLxYyoNFG_LbMSAUpIx-23" value="circulando en rotonda" style="text;html=1;align=center;verticalAlign=middle;resizable=0;points=[];autosize=1;strokeColor=none;fillColor=none;" vertex="1" parent="WIyWlLk6GJQsqaUBKTNV-1">
          <mxGeometry x="820" y="325" width="140" height="30" as="geometry" />
        </mxCell>
        <mxCell id="EZLxYyoNFG_LbMSAUpIx-25" value="" style="shape=mxgraph.cisco.misc.token;html=1;pointerEvents=1;dashed=0;fillColor=#036897;strokeColor=#ffffff;strokeWidth=2;verticalLabelPosition=bottom;verticalAlign=top;align=center;outlineConnect=0;" vertex="1" parent="WIyWlLk6GJQsqaUBKTNV-1">
          <mxGeometry x="770" y="68" width="20" height="20" as="geometry" />
        </mxCell>
        <mxCell id="EZLxYyoNFG_LbMSAUpIx-26" value="" style="ellipse;whiteSpace=wrap;html=1;aspect=fixed;fillColor=none;" vertex="1" parent="WIyWlLk6GJQsqaUBKTNV-1">
          <mxGeometry x="730" y="50" width="80" height="80" as="geometry" />
        </mxCell>
        <mxCell id="EZLxYyoNFG_LbMSAUpIx-29" value="Capacidad de autos" style="text;html=1;align=center;verticalAlign=middle;resizable=0;points=[];autosize=1;strokeColor=none;fillColor=none;" vertex="1" parent="WIyWlLk6GJQsqaUBKTNV-1">
          <mxGeometry x="705" y="10" width="130" height="30" as="geometry" />
        </mxCell>
        <mxCell id="EZLxYyoNFG_LbMSAUpIx-32" value="" style="shape=mxgraph.cisco.misc.token;html=1;pointerEvents=1;dashed=0;fillColor=#036897;strokeColor=#ffffff;strokeWidth=2;verticalLabelPosition=bottom;verticalAlign=top;align=center;outlineConnect=0;" vertex="1" parent="WIyWlLk6GJQsqaUBKTNV-1">
          <mxGeometry x="750" y="68" width="20" height="20" as="geometry" />
        </mxCell>
        <mxCell id="EZLxYyoNFG_LbMSAUpIx-49" value="" style="endArrow=classic;html=1;rounded=0;exitX=0.5;exitY=1;exitDx=0;exitDy=0;entryX=0.279;entryY=0.952;entryDx=0;entryDy=0;entryPerimeter=0;" edge="1" parent="WIyWlLk6GJQsqaUBKTNV-1" source="EZLxYyoNFG_LbMSAUpIx-4" target="EZLxYyoNFG_LbMSAUpIx-2">
          <mxGeometry width="50" height="50" relative="1" as="geometry">
            <mxPoint x="270" y="430" as="sourcePoint" />
            <mxPoint x="320" y="380" as="targetPoint" />
          </mxGeometry>
        </mxCell>
        <mxCell id="EZLxYyoNFG_LbMSAUpIx-51" value="" style="endArrow=classic;html=1;rounded=0;exitX=0.5;exitY=1;exitDx=0;exitDy=0;entryX=0;entryY=0;entryDx=0;entryDy=0;" edge="1" parent="WIyWlLk6GJQsqaUBKTNV-1" source="EZLxYyoNFG_LbMSAUpIx-0" target="EZLxYyoNFG_LbMSAUpIx-2">
          <mxGeometry width="50" height="50" relative="1" as="geometry">
            <mxPoint x="320" y="210" as="sourcePoint" />
            <mxPoint x="370" y="160" as="targetPoint" />
          </mxGeometry>
        </mxCell>
        <mxCell id="EZLxYyoNFG_LbMSAUpIx-52" style="edgeStyle=orthogonalEdgeStyle;rounded=0;orthogonalLoop=1;jettySize=auto;html=1;exitX=1;exitY=0.5;exitDx=0;exitDy=0;entryX=0.556;entryY=0.12;entryDx=0;entryDy=0;entryPerimeter=0;" edge="1" parent="WIyWlLk6GJQsqaUBKTNV-1" source="EZLxYyoNFG_LbMSAUpIx-2" target="EZLxYyoNFG_LbMSAUpIx-10">
          <mxGeometry relative="1" as="geometry" />
        </mxCell>
        <mxCell id="EZLxYyoNFG_LbMSAUpIx-54" style="edgeStyle=orthogonalEdgeStyle;rounded=0;orthogonalLoop=1;jettySize=auto;html=1;exitX=0;exitY=0.5;exitDx=0;exitDy=0;entryX=0.668;entryY=0.756;entryDx=0;entryDy=0;entryPerimeter=0;" edge="1" parent="WIyWlLk6GJQsqaUBKTNV-1" source="EZLxYyoNFG_LbMSAUpIx-26" target="EZLxYyoNFG_LbMSAUpIx-10">
          <mxGeometry relative="1" as="geometry">
            <Array as="points">
              <mxPoint x="550" y="90" />
              <mxPoint x="550" y="245" />
            </Array>
          </mxGeometry>
        </mxCell>
        <mxCell id="EZLxYyoNFG_LbMSAUpIx-55" value="se sale de la rotonda" style="text;html=1;align=center;verticalAlign=middle;resizable=0;points=[];autosize=1;strokeColor=none;fillColor=none;" vertex="1" parent="WIyWlLk6GJQsqaUBKTNV-1">
          <mxGeometry x="730" y="200" width="130" height="30" as="geometry" />
        </mxCell>
        <mxCell id="EZLxYyoNFG_LbMSAUpIx-57" value="Auto sale de rotonda" style="text;html=1;align=center;verticalAlign=middle;resizable=0;points=[];autosize=1;strokeColor=none;fillColor=none;" vertex="1" parent="WIyWlLk6GJQsqaUBKTNV-1">
          <mxGeometry x="1000" y="190" width="130" height="30" as="geometry" />
        </mxCell>
        <mxCell id="EZLxYyoNFG_LbMSAUpIx-58" style="edgeStyle=orthogonalEdgeStyle;rounded=0;orthogonalLoop=1;jettySize=auto;html=1;exitX=1;exitY=0.5;exitDx=0;exitDy=0;entryX=0.5;entryY=0;entryDx=0;entryDy=0;" edge="1" parent="WIyWlLk6GJQsqaUBKTNV-1" source="EZLxYyoNFG_LbMSAUpIx-22" target="EZLxYyoNFG_LbMSAUpIx-60">
          <mxGeometry relative="1" as="geometry">
            <mxPoint x="1051" y="284.1200000000001" as="targetPoint" />
          </mxGeometry>
        </mxCell>
        <mxCell id="EZLxYyoNFG_LbMSAUpIx-63" value="" style="edgeStyle=orthogonalEdgeStyle;rounded=0;orthogonalLoop=1;jettySize=auto;html=1;" edge="1" parent="WIyWlLk6GJQsqaUBKTNV-1" source="EZLxYyoNFG_LbMSAUpIx-60" target="EZLxYyoNFG_LbMSAUpIx-62">
          <mxGeometry relative="1" as="geometry" />
        </mxCell>
        <mxCell id="EZLxYyoNFG_LbMSAUpIx-60" value="" style="rounded=0;whiteSpace=wrap;html=1;rotation=-90;" vertex="1" parent="WIyWlLk6GJQsqaUBKTNV-1">
          <mxGeometry x="1010" y="280" width="120" height="10" as="geometry" />
        </mxCell>
        <mxCell id="EZLxYyoNFG_LbMSAUpIx-62" value="" style="ellipse;whiteSpace=wrap;html=1;rounded=0;" vertex="1" parent="WIyWlLk6GJQsqaUBKTNV-1">
          <mxGeometry x="1190" y="245" width="80" height="80" as="geometry" />
        </mxCell>
        <mxCell id="EZLxYyoNFG_LbMSAUpIx-64" value="Circulando por ruta" style="text;html=1;align=center;verticalAlign=middle;resizable=0;points=[];autosize=1;strokeColor=none;fillColor=none;" vertex="1" parent="WIyWlLk6GJQsqaUBKTNV-1">
          <mxGeometry x="1140" y="340" width="130" height="30" as="geometry" />
        </mxCell>
        <mxCell id="EZLxYyoNFG_LbMSAUpIx-65" value="" style="endArrow=classic;html=1;rounded=0;exitX=1;exitY=0;exitDx=0;exitDy=0;entryX=0.5;entryY=0;entryDx=0;entryDy=0;" edge="1" parent="WIyWlLk6GJQsqaUBKTNV-1" source="EZLxYyoNFG_LbMSAUpIx-62" target="EZLxYyoNFG_LbMSAUpIx-67">
          <mxGeometry width="50" height="50" relative="1" as="geometry">
            <mxPoint x="1260" y="250" as="sourcePoint" />
            <mxPoint x="1360" y="160" as="targetPoint" />
          </mxGeometry>
        </mxCell>
        <mxCell id="EZLxYyoNFG_LbMSAUpIx-66" value="" style="endArrow=classic;html=1;rounded=0;exitX=1;exitY=1;exitDx=0;exitDy=0;" edge="1" parent="WIyWlLk6GJQsqaUBKTNV-1" source="EZLxYyoNFG_LbMSAUpIx-62" target="EZLxYyoNFG_LbMSAUpIx-69">
          <mxGeometry width="50" height="50" relative="1" as="geometry">
            <mxPoint x="1340" y="360" as="sourcePoint" />
            <mxPoint x="1370" y="370" as="targetPoint" />
          </mxGeometry>
        </mxCell>
        <mxCell id="EZLxYyoNFG_LbMSAUpIx-73" value="" style="edgeStyle=orthogonalEdgeStyle;rounded=0;orthogonalLoop=1;jettySize=auto;html=1;" edge="1" parent="WIyWlLk6GJQsqaUBKTNV-1" source="EZLxYyoNFG_LbMSAUpIx-67" target="EZLxYyoNFG_LbMSAUpIx-72">
          <mxGeometry relative="1" as="geometry" />
        </mxCell>
        <mxCell id="EZLxYyoNFG_LbMSAUpIx-67" value="" style="rounded=0;whiteSpace=wrap;html=1;rotation=-90;" vertex="1" parent="WIyWlLk6GJQsqaUBKTNV-1">
          <mxGeometry x="1340" y="160" width="120" height="10" as="geometry" />
        </mxCell>
        <mxCell id="EZLxYyoNFG_LbMSAUpIx-68" value="Opta ruta 11" style="text;html=1;align=center;verticalAlign=middle;resizable=0;points=[];autosize=1;strokeColor=none;fillColor=none;" vertex="1" parent="WIyWlLk6GJQsqaUBKTNV-1">
          <mxGeometry x="1355" y="58" width="90" height="30" as="geometry" />
        </mxCell>
        <mxCell id="EZLxYyoNFG_LbMSAUpIx-75" value="" style="edgeStyle=orthogonalEdgeStyle;rounded=0;orthogonalLoop=1;jettySize=auto;html=1;" edge="1" parent="WIyWlLk6GJQsqaUBKTNV-1" source="EZLxYyoNFG_LbMSAUpIx-69" target="EZLxYyoNFG_LbMSAUpIx-74">
          <mxGeometry relative="1" as="geometry" />
        </mxCell>
        <mxCell id="EZLxYyoNFG_LbMSAUpIx-69" value="" style="rounded=0;whiteSpace=wrap;html=1;rotation=-90;" vertex="1" parent="WIyWlLk6GJQsqaUBKTNV-1">
          <mxGeometry x="1320" y="987" width="120" height="10" as="geometry" />
        </mxCell>
        <mxCell id="EZLxYyoNFG_LbMSAUpIx-70" value="Opta ruta 2" style="text;html=1;align=center;verticalAlign=middle;resizable=0;points=[];autosize=1;strokeColor=none;fillColor=none;" vertex="1" parent="WIyWlLk6GJQsqaUBKTNV-1">
          <mxGeometry x="1340" y="1057" width="80" height="30" as="geometry" />
        </mxCell>
        <mxCell id="EZLxYyoNFG_LbMSAUpIx-72" value="" style="ellipse;whiteSpace=wrap;html=1;rounded=0;" vertex="1" parent="WIyWlLk6GJQsqaUBKTNV-1">
          <mxGeometry x="1560" y="125" width="80" height="80" as="geometry" />
        </mxCell>
        <mxCell id="EZLxYyoNFG_LbMSAUpIx-159" style="edgeStyle=orthogonalEdgeStyle;rounded=0;orthogonalLoop=1;jettySize=auto;html=1;exitX=1;exitY=0.5;exitDx=0;exitDy=0;" edge="1" parent="WIyWlLk6GJQsqaUBKTNV-1" source="EZLxYyoNFG_LbMSAUpIx-74" target="EZLxYyoNFG_LbMSAUpIx-160">
          <mxGeometry relative="1" as="geometry">
            <mxPoint x="1770" y="992.3333333333335" as="targetPoint" />
          </mxGeometry>
        </mxCell>
        <mxCell id="EZLxYyoNFG_LbMSAUpIx-74" value="" style="ellipse;whiteSpace=wrap;html=1;rounded=0;" vertex="1" parent="WIyWlLk6GJQsqaUBKTNV-1">
          <mxGeometry x="1540" y="952" width="80" height="80" as="geometry" />
        </mxCell>
        <mxCell id="EZLxYyoNFG_LbMSAUpIx-76" value="Esperando primer control" style="text;html=1;align=center;verticalAlign=middle;resizable=0;points=[];autosize=1;strokeColor=none;fillColor=none;" vertex="1" parent="WIyWlLk6GJQsqaUBKTNV-1">
          <mxGeometry x="1520" y="95" width="160" height="30" as="geometry" />
        </mxCell>
        <mxCell id="EZLxYyoNFG_LbMSAUpIx-77" value="" style="endArrow=classic;html=1;rounded=0;exitX=1;exitY=0;exitDx=0;exitDy=0;entryX=0.5;entryY=0;entryDx=0;entryDy=0;" edge="1" parent="WIyWlLk6GJQsqaUBKTNV-1" source="EZLxYyoNFG_LbMSAUpIx-72" target="EZLxYyoNFG_LbMSAUpIx-78">
          <mxGeometry width="50" height="50" relative="1" as="geometry">
            <mxPoint x="1700" y="140" as="sourcePoint" />
            <mxPoint x="1790" y="70" as="targetPoint" />
          </mxGeometry>
        </mxCell>
        <mxCell id="EZLxYyoNFG_LbMSAUpIx-101" style="edgeStyle=orthogonalEdgeStyle;rounded=0;orthogonalLoop=1;jettySize=auto;html=1;exitX=0.5;exitY=1;exitDx=0;exitDy=0;" edge="1" parent="WIyWlLk6GJQsqaUBKTNV-1" source="EZLxYyoNFG_LbMSAUpIx-78" target="EZLxYyoNFG_LbMSAUpIx-102">
          <mxGeometry relative="1" as="geometry">
            <mxPoint x="1970" y="62.66666666666697" as="targetPoint" />
          </mxGeometry>
        </mxCell>
        <mxCell id="EZLxYyoNFG_LbMSAUpIx-78" value="" style="rounded=0;whiteSpace=wrap;html=1;rotation=-90;" vertex="1" parent="WIyWlLk6GJQsqaUBKTNV-1">
          <mxGeometry x="1770" y="58" width="120" height="10" as="geometry" />
        </mxCell>
        <mxCell id="EZLxYyoNFG_LbMSAUpIx-79" value="Ingresar control 1" style="text;html=1;align=center;verticalAlign=middle;resizable=0;points=[];autosize=1;strokeColor=none;fillColor=none;" vertex="1" parent="WIyWlLk6GJQsqaUBKTNV-1">
          <mxGeometry x="1770" y="-30" width="120" height="30" as="geometry" />
        </mxCell>
        <mxCell id="EZLxYyoNFG_LbMSAUpIx-80" value="" style="endArrow=classic;html=1;rounded=0;exitX=1;exitY=1;exitDx=0;exitDy=0;" edge="1" parent="WIyWlLk6GJQsqaUBKTNV-1" source="EZLxYyoNFG_LbMSAUpIx-72" target="EZLxYyoNFG_LbMSAUpIx-81">
          <mxGeometry width="50" height="50" relative="1" as="geometry">
            <mxPoint x="1680" y="250" as="sourcePoint" />
            <mxPoint x="1800" y="260" as="targetPoint" />
          </mxGeometry>
        </mxCell>
        <mxCell id="EZLxYyoNFG_LbMSAUpIx-108" style="edgeStyle=orthogonalEdgeStyle;rounded=0;orthogonalLoop=1;jettySize=auto;html=1;exitX=0.5;exitY=1;exitDx=0;exitDy=0;entryX=0;entryY=0.5;entryDx=0;entryDy=0;" edge="1" parent="WIyWlLk6GJQsqaUBKTNV-1" source="EZLxYyoNFG_LbMSAUpIx-81" target="EZLxYyoNFG_LbMSAUpIx-105">
          <mxGeometry relative="1" as="geometry" />
        </mxCell>
        <mxCell id="EZLxYyoNFG_LbMSAUpIx-81" value="" style="rounded=0;whiteSpace=wrap;html=1;rotation=-90;" vertex="1" parent="WIyWlLk6GJQsqaUBKTNV-1">
          <mxGeometry x="1770" y="260" width="120" height="10" as="geometry" />
        </mxCell>
        <mxCell id="EZLxYyoNFG_LbMSAUpIx-82" value="Ingresar control 2" style="text;html=1;align=center;verticalAlign=middle;resizable=0;points=[];autosize=1;strokeColor=none;fillColor=none;" vertex="1" parent="WIyWlLk6GJQsqaUBKTNV-1">
          <mxGeometry x="1770" y="335" width="120" height="30" as="geometry" />
        </mxCell>
        <mxCell id="EZLxYyoNFG_LbMSAUpIx-83" value="" style="shape=mxgraph.cisco.misc.token;html=1;pointerEvents=1;dashed=0;fillColor=#036897;strokeColor=#ffffff;strokeWidth=2;verticalLabelPosition=bottom;verticalAlign=top;align=center;outlineConnect=0;" vertex="1" parent="WIyWlLk6GJQsqaUBKTNV-1">
          <mxGeometry x="2000" y="-90" width="20" height="20" as="geometry" />
        </mxCell>
        <mxCell id="EZLxYyoNFG_LbMSAUpIx-84" value="" style="ellipse;whiteSpace=wrap;html=1;aspect=fixed;fillColor=none;" vertex="1" parent="WIyWlLk6GJQsqaUBKTNV-1">
          <mxGeometry x="1970" y="-120" width="80" height="80" as="geometry" />
        </mxCell>
        <mxCell id="EZLxYyoNFG_LbMSAUpIx-87" value="Oficial libre" style="text;html=1;align=center;verticalAlign=middle;resizable=0;points=[];autosize=1;strokeColor=none;fillColor=none;" vertex="1" parent="WIyWlLk6GJQsqaUBKTNV-1">
          <mxGeometry x="1970" y="-172" width="80" height="30" as="geometry" />
        </mxCell>
        <mxCell id="EZLxYyoNFG_LbMSAUpIx-88" value="Saliendo del control 1" style="text;html=1;align=center;verticalAlign=middle;resizable=0;points=[];autosize=1;strokeColor=none;fillColor=none;" vertex="1" parent="WIyWlLk6GJQsqaUBKTNV-1">
          <mxGeometry x="2140" y="-30" width="140" height="30" as="geometry" />
        </mxCell>
        <mxCell id="EZLxYyoNFG_LbMSAUpIx-89" value="" style="rounded=0;whiteSpace=wrap;html=1;rotation=-90;" vertex="1" parent="WIyWlLk6GJQsqaUBKTNV-1">
          <mxGeometry x="2100" y="58" width="120" height="10" as="geometry" />
        </mxCell>
        <mxCell id="EZLxYyoNFG_LbMSAUpIx-90" value="" style="endArrow=none;html=1;rounded=0;exitX=1;exitY=0.5;exitDx=0;exitDy=0;startArrow=classic;startFill=1;endFill=0;" edge="1" parent="WIyWlLk6GJQsqaUBKTNV-1" source="EZLxYyoNFG_LbMSAUpIx-84">
          <mxGeometry width="50" height="50" relative="1" as="geometry">
            <mxPoint x="2100" y="-60" as="sourcePoint" />
            <mxPoint x="2150" as="targetPoint" />
          </mxGeometry>
        </mxCell>
        <mxCell id="EZLxYyoNFG_LbMSAUpIx-91" value="" style="endArrow=classic;html=1;rounded=0;exitX=0;exitY=0.5;exitDx=0;exitDy=0;entryX=0.558;entryY=0.144;entryDx=0;entryDy=0;entryPerimeter=0;" edge="1" parent="WIyWlLk6GJQsqaUBKTNV-1" source="EZLxYyoNFG_LbMSAUpIx-84" target="EZLxYyoNFG_LbMSAUpIx-79">
          <mxGeometry width="50" height="50" relative="1" as="geometry">
            <mxPoint x="1890" y="-90" as="sourcePoint" />
            <mxPoint x="1940" y="-140" as="targetPoint" />
          </mxGeometry>
        </mxCell>
        <mxCell id="EZLxYyoNFG_LbMSAUpIx-92" value="" style="shape=mxgraph.cisco.misc.token;html=1;pointerEvents=1;dashed=0;fillColor=#036897;strokeColor=#ffffff;strokeWidth=2;verticalLabelPosition=bottom;verticalAlign=top;align=center;outlineConnect=0;" vertex="1" parent="WIyWlLk6GJQsqaUBKTNV-1">
          <mxGeometry x="2000" y="415" width="20" height="20" as="geometry" />
        </mxCell>
        <mxCell id="EZLxYyoNFG_LbMSAUpIx-93" value="" style="ellipse;whiteSpace=wrap;html=1;aspect=fixed;fillColor=none;" vertex="1" parent="WIyWlLk6GJQsqaUBKTNV-1">
          <mxGeometry x="1970" y="385" width="80" height="80" as="geometry" />
        </mxCell>
        <mxCell id="EZLxYyoNFG_LbMSAUpIx-94" value="Oficial libre" style="text;html=1;align=center;verticalAlign=middle;resizable=0;points=[];autosize=1;strokeColor=none;fillColor=none;" vertex="1" parent="WIyWlLk6GJQsqaUBKTNV-1">
          <mxGeometry x="1970" y="480" width="80" height="30" as="geometry" />
        </mxCell>
        <mxCell id="EZLxYyoNFG_LbMSAUpIx-95" value="Saliendo del control 1" style="text;html=1;align=center;verticalAlign=middle;resizable=0;points=[];autosize=1;strokeColor=none;fillColor=none;" vertex="1" parent="WIyWlLk6GJQsqaUBKTNV-1">
          <mxGeometry x="2123" y="335" width="140" height="30" as="geometry" />
        </mxCell>
        <mxCell id="EZLxYyoNFG_LbMSAUpIx-96" value="" style="rounded=0;whiteSpace=wrap;html=1;rotation=-90;" vertex="1" parent="WIyWlLk6GJQsqaUBKTNV-1">
          <mxGeometry x="2100" y="260" width="120" height="10" as="geometry" />
        </mxCell>
        <mxCell id="EZLxYyoNFG_LbMSAUpIx-97" value="" style="endArrow=none;html=1;rounded=0;exitX=1;exitY=0.5;exitDx=0;exitDy=0;startArrow=classic;startFill=1;endFill=0;" edge="1" parent="WIyWlLk6GJQsqaUBKTNV-1" source="EZLxYyoNFG_LbMSAUpIx-93">
          <mxGeometry width="50" height="50" relative="1" as="geometry">
            <mxPoint x="2143" y="327" as="sourcePoint" />
            <mxPoint x="2150" y="360" as="targetPoint" />
          </mxGeometry>
        </mxCell>
        <mxCell id="EZLxYyoNFG_LbMSAUpIx-98" value="" style="endArrow=classic;html=1;rounded=0;exitX=0;exitY=0.5;exitDx=0;exitDy=0;entryX=0.753;entryY=1.126;entryDx=0;entryDy=0;entryPerimeter=0;" edge="1" parent="WIyWlLk6GJQsqaUBKTNV-1" source="EZLxYyoNFG_LbMSAUpIx-93" target="EZLxYyoNFG_LbMSAUpIx-82">
          <mxGeometry width="50" height="50" relative="1" as="geometry">
            <mxPoint x="1963" y="312" as="sourcePoint" />
            <mxPoint x="1910" y="366" as="targetPoint" />
          </mxGeometry>
        </mxCell>
        <mxCell id="EZLxYyoNFG_LbMSAUpIx-103" style="edgeStyle=orthogonalEdgeStyle;rounded=0;orthogonalLoop=1;jettySize=auto;html=1;entryX=0.5;entryY=0;entryDx=0;entryDy=0;" edge="1" parent="WIyWlLk6GJQsqaUBKTNV-1" source="EZLxYyoNFG_LbMSAUpIx-102" target="EZLxYyoNFG_LbMSAUpIx-89">
          <mxGeometry relative="1" as="geometry" />
        </mxCell>
        <mxCell id="EZLxYyoNFG_LbMSAUpIx-102" value="" style="ellipse;whiteSpace=wrap;html=1;aspect=fixed;" vertex="1" parent="WIyWlLk6GJQsqaUBKTNV-1">
          <mxGeometry x="1970" y="23" width="80" height="80" as="geometry" />
        </mxCell>
        <mxCell id="EZLxYyoNFG_LbMSAUpIx-104" value="Esperando control puesto 1" style="text;html=1;align=center;verticalAlign=middle;resizable=0;points=[];autosize=1;strokeColor=none;fillColor=none;" vertex="1" parent="WIyWlLk6GJQsqaUBKTNV-1">
          <mxGeometry x="1925" y="110" width="170" height="30" as="geometry" />
        </mxCell>
        <mxCell id="EZLxYyoNFG_LbMSAUpIx-107" style="edgeStyle=orthogonalEdgeStyle;rounded=0;orthogonalLoop=1;jettySize=auto;html=1;exitX=1;exitY=0.5;exitDx=0;exitDy=0;entryX=0.5;entryY=0;entryDx=0;entryDy=0;" edge="1" parent="WIyWlLk6GJQsqaUBKTNV-1" source="EZLxYyoNFG_LbMSAUpIx-105" target="EZLxYyoNFG_LbMSAUpIx-96">
          <mxGeometry relative="1" as="geometry" />
        </mxCell>
        <mxCell id="EZLxYyoNFG_LbMSAUpIx-105" value="" style="ellipse;whiteSpace=wrap;html=1;aspect=fixed;" vertex="1" parent="WIyWlLk6GJQsqaUBKTNV-1">
          <mxGeometry x="1970" y="224.99999999999997" width="80" height="80" as="geometry" />
        </mxCell>
        <mxCell id="EZLxYyoNFG_LbMSAUpIx-106" value="Esperando control puesto 2" style="text;html=1;align=center;verticalAlign=middle;resizable=0;points=[];autosize=1;strokeColor=none;fillColor=none;" vertex="1" parent="WIyWlLk6GJQsqaUBKTNV-1">
          <mxGeometry x="1922.5" y="319.99999999999994" width="170" height="30" as="geometry" />
        </mxCell>
        <mxCell id="EZLxYyoNFG_LbMSAUpIx-118" style="edgeStyle=orthogonalEdgeStyle;rounded=0;orthogonalLoop=1;jettySize=auto;html=1;exitX=1;exitY=0;exitDx=0;exitDy=0;entryX=0.728;entryY=0;entryDx=0;entryDy=0;entryPerimeter=0;" edge="1" parent="WIyWlLk6GJQsqaUBKTNV-1" source="EZLxYyoNFG_LbMSAUpIx-110" target="EZLxYyoNFG_LbMSAUpIx-116">
          <mxGeometry relative="1" as="geometry" />
        </mxCell>
        <mxCell id="EZLxYyoNFG_LbMSAUpIx-119" style="edgeStyle=orthogonalEdgeStyle;rounded=0;orthogonalLoop=1;jettySize=auto;html=1;exitX=1;exitY=1;exitDx=0;exitDy=0;entryX=0.306;entryY=0.173;entryDx=0;entryDy=0;entryPerimeter=0;" edge="1" parent="WIyWlLk6GJQsqaUBKTNV-1" source="EZLxYyoNFG_LbMSAUpIx-110" target="EZLxYyoNFG_LbMSAUpIx-116">
          <mxGeometry relative="1" as="geometry">
            <mxPoint x="2579" y="197" as="targetPoint" />
          </mxGeometry>
        </mxCell>
        <mxCell id="EZLxYyoNFG_LbMSAUpIx-110" value="" style="ellipse;whiteSpace=wrap;html=1;rounded=0;" vertex="1" parent="WIyWlLk6GJQsqaUBKTNV-1">
          <mxGeometry x="2330" y="130" width="80" height="80" as="geometry" />
        </mxCell>
        <mxCell id="EZLxYyoNFG_LbMSAUpIx-112" value="Esperando segundo control" style="text;html=1;align=center;verticalAlign=middle;resizable=0;points=[];autosize=1;strokeColor=none;fillColor=none;" vertex="1" parent="WIyWlLk6GJQsqaUBKTNV-1">
          <mxGeometry x="2285" y="215" width="170" height="30" as="geometry" />
        </mxCell>
        <mxCell id="EZLxYyoNFG_LbMSAUpIx-114" value="" style="endArrow=classic;html=1;rounded=0;exitX=0.5;exitY=1;exitDx=0;exitDy=0;entryX=0;entryY=0;entryDx=0;entryDy=0;" edge="1" parent="WIyWlLk6GJQsqaUBKTNV-1" source="EZLxYyoNFG_LbMSAUpIx-89" target="EZLxYyoNFG_LbMSAUpIx-110">
          <mxGeometry width="50" height="50" relative="1" as="geometry">
            <mxPoint x="2300" y="60" as="sourcePoint" />
            <mxPoint x="2350" y="10" as="targetPoint" />
          </mxGeometry>
        </mxCell>
        <mxCell id="EZLxYyoNFG_LbMSAUpIx-115" value="" style="endArrow=classic;html=1;rounded=0;exitX=0.5;exitY=1;exitDx=0;exitDy=0;entryX=0;entryY=1;entryDx=0;entryDy=0;" edge="1" parent="WIyWlLk6GJQsqaUBKTNV-1" source="EZLxYyoNFG_LbMSAUpIx-96" target="EZLxYyoNFG_LbMSAUpIx-110">
          <mxGeometry width="50" height="50" relative="1" as="geometry">
            <mxPoint x="2210" y="270" as="sourcePoint" />
            <mxPoint x="2260" y="220" as="targetPoint" />
          </mxGeometry>
        </mxCell>
        <mxCell id="EZLxYyoNFG_LbMSAUpIx-124" value="" style="edgeStyle=orthogonalEdgeStyle;rounded=0;orthogonalLoop=1;jettySize=auto;html=1;" edge="1" parent="WIyWlLk6GJQsqaUBKTNV-1" source="EZLxYyoNFG_LbMSAUpIx-116" target="EZLxYyoNFG_LbMSAUpIx-123">
          <mxGeometry relative="1" as="geometry" />
        </mxCell>
        <mxCell id="EZLxYyoNFG_LbMSAUpIx-116" value="" style="rounded=0;whiteSpace=wrap;html=1;rotation=-90;" vertex="1" parent="WIyWlLk6GJQsqaUBKTNV-1">
          <mxGeometry x="2512.5" y="167.5" width="135" height="10" as="geometry" />
        </mxCell>
        <mxCell id="EZLxYyoNFG_LbMSAUpIx-117" value="Comenzar control" style="text;html=1;align=center;verticalAlign=middle;resizable=0;points=[];autosize=1;strokeColor=none;fillColor=none;" vertex="1" parent="WIyWlLk6GJQsqaUBKTNV-1">
          <mxGeometry x="2520" y="73" width="120" height="30" as="geometry" />
        </mxCell>
        <mxCell id="EZLxYyoNFG_LbMSAUpIx-147" style="edgeStyle=orthogonalEdgeStyle;rounded=0;orthogonalLoop=1;jettySize=auto;html=1;exitX=1;exitY=0.5;exitDx=0;exitDy=0;" edge="1" parent="WIyWlLk6GJQsqaUBKTNV-1" source="EZLxYyoNFG_LbMSAUpIx-123" target="EZLxYyoNFG_LbMSAUpIx-148">
          <mxGeometry relative="1" as="geometry">
            <mxPoint x="2920.0000000000005" y="172.17391304347848" as="targetPoint" />
          </mxGeometry>
        </mxCell>
        <mxCell id="EZLxYyoNFG_LbMSAUpIx-123" value="" style="ellipse;whiteSpace=wrap;html=1;rounded=0;" vertex="1" parent="WIyWlLk6GJQsqaUBKTNV-1">
          <mxGeometry x="2720" y="132.5" width="80" height="80" as="geometry" />
        </mxCell>
        <mxCell id="EZLxYyoNFG_LbMSAUpIx-125" value="Realizando control" style="text;html=1;align=center;verticalAlign=middle;resizable=0;points=[];autosize=1;strokeColor=none;fillColor=none;" vertex="1" parent="WIyWlLk6GJQsqaUBKTNV-1">
          <mxGeometry x="2700" y="228" width="120" height="30" as="geometry" />
        </mxCell>
        <mxCell id="EZLxYyoNFG_LbMSAUpIx-141" value="" style="shape=mxgraph.cisco.misc.token;html=1;pointerEvents=1;dashed=0;fillColor=#036897;strokeColor=#ffffff;strokeWidth=2;verticalLabelPosition=bottom;verticalAlign=top;align=center;outlineConnect=0;" vertex="1" parent="WIyWlLk6GJQsqaUBKTNV-1">
          <mxGeometry x="2760" y="-8" width="20" height="20" as="geometry" />
        </mxCell>
        <mxCell id="EZLxYyoNFG_LbMSAUpIx-142" value="" style="ellipse;whiteSpace=wrap;html=1;aspect=fixed;fillColor=none;" vertex="1" parent="WIyWlLk6GJQsqaUBKTNV-1">
          <mxGeometry x="2730" y="-38" width="80" height="80" as="geometry" />
        </mxCell>
        <mxCell id="EZLxYyoNFG_LbMSAUpIx-143" value="Oficial libre" style="text;html=1;align=center;verticalAlign=middle;resizable=0;points=[];autosize=1;strokeColor=none;fillColor=none;" vertex="1" parent="WIyWlLk6GJQsqaUBKTNV-1">
          <mxGeometry x="2730" y="-90" width="80" height="30" as="geometry" />
        </mxCell>
        <mxCell id="EZLxYyoNFG_LbMSAUpIx-145" value="" style="endArrow=none;html=1;rounded=0;exitX=1;exitY=0.5;exitDx=0;exitDy=0;startArrow=classic;startFill=1;endFill=0;" edge="1" parent="WIyWlLk6GJQsqaUBKTNV-1" source="EZLxYyoNFG_LbMSAUpIx-142">
          <mxGeometry width="50" height="50" relative="1" as="geometry">
            <mxPoint x="2860" y="22" as="sourcePoint" />
            <mxPoint x="2910" y="82" as="targetPoint" />
          </mxGeometry>
        </mxCell>
        <mxCell id="EZLxYyoNFG_LbMSAUpIx-146" value="" style="endArrow=classic;html=1;rounded=0;exitX=0;exitY=0.5;exitDx=0;exitDy=0;entryX=0.558;entryY=0.144;entryDx=0;entryDy=0;entryPerimeter=0;" edge="1" parent="WIyWlLk6GJQsqaUBKTNV-1" source="EZLxYyoNFG_LbMSAUpIx-142">
          <mxGeometry width="50" height="50" relative="1" as="geometry">
            <mxPoint x="2650" y="-8" as="sourcePoint" />
            <mxPoint x="2596.9599999999996" y="56.320000000000164" as="targetPoint" />
          </mxGeometry>
        </mxCell>
        <mxCell id="EZLxYyoNFG_LbMSAUpIx-151" value="" style="edgeStyle=orthogonalEdgeStyle;rounded=0;orthogonalLoop=1;jettySize=auto;html=1;" edge="1" parent="WIyWlLk6GJQsqaUBKTNV-1" source="EZLxYyoNFG_LbMSAUpIx-148" target="EZLxYyoNFG_LbMSAUpIx-150">
          <mxGeometry relative="1" as="geometry" />
        </mxCell>
        <mxCell id="EZLxYyoNFG_LbMSAUpIx-148" value="" style="rounded=0;whiteSpace=wrap;html=1;rotation=-90;" vertex="1" parent="WIyWlLk6GJQsqaUBKTNV-1">
          <mxGeometry x="2860.0000000000005" y="167.17391304347848" width="120" height="10" as="geometry" />
        </mxCell>
        <mxCell id="EZLxYyoNFG_LbMSAUpIx-149" value="Terminar control" style="text;html=1;align=center;verticalAlign=middle;resizable=0;points=[];autosize=1;strokeColor=none;fillColor=none;" vertex="1" parent="WIyWlLk6GJQsqaUBKTNV-1">
          <mxGeometry x="2865" y="80" width="110" height="30" as="geometry" />
        </mxCell>
        <mxCell id="EZLxYyoNFG_LbMSAUpIx-153" style="edgeStyle=orthogonalEdgeStyle;rounded=0;orthogonalLoop=1;jettySize=auto;html=1;exitX=1;exitY=0.5;exitDx=0;exitDy=0;" edge="1" parent="WIyWlLk6GJQsqaUBKTNV-1" source="EZLxYyoNFG_LbMSAUpIx-150" target="EZLxYyoNFG_LbMSAUpIx-154">
          <mxGeometry relative="1" as="geometry">
            <mxPoint x="3190.0000000000005" y="172.17391304347848" as="targetPoint" />
          </mxGeometry>
        </mxCell>
        <mxCell id="EZLxYyoNFG_LbMSAUpIx-150" value="" style="ellipse;whiteSpace=wrap;html=1;rounded=0;" vertex="1" parent="WIyWlLk6GJQsqaUBKTNV-1">
          <mxGeometry x="3020.0000000000005" y="132.17391304347848" width="80" height="80" as="geometry" />
        </mxCell>
        <mxCell id="EZLxYyoNFG_LbMSAUpIx-152" value="Seguir por ruta 11" style="text;html=1;align=center;verticalAlign=middle;resizable=0;points=[];autosize=1;strokeColor=none;fillColor=none;" vertex="1" parent="WIyWlLk6GJQsqaUBKTNV-1">
          <mxGeometry x="3000" y="220" width="120" height="30" as="geometry" />
        </mxCell>
        <mxCell id="EZLxYyoNFG_LbMSAUpIx-154" value="" style="rounded=0;whiteSpace=wrap;html=1;rotation=-90;" vertex="1" parent="WIyWlLk6GJQsqaUBKTNV-1">
          <mxGeometry x="3130.0000000000005" y="167.17391304347848" width="120" height="10" as="geometry" />
        </mxCell>
        <mxCell id="EZLxYyoNFG_LbMSAUpIx-155" value="llegada a la costa por ruta 11" style="text;html=1;align=center;verticalAlign=middle;resizable=0;points=[];autosize=1;strokeColor=none;fillColor=none;" vertex="1" parent="WIyWlLk6GJQsqaUBKTNV-1">
          <mxGeometry x="3100" y="80" width="180" height="30" as="geometry" />
        </mxCell>
        <mxCell id="EZLxYyoNFG_LbMSAUpIx-156" value="" style="endArrow=classic;html=1;rounded=0;exitX=1;exitY=0;exitDx=0;exitDy=0;" edge="1" parent="WIyWlLk6GJQsqaUBKTNV-1" source="EZLxYyoNFG_LbMSAUpIx-74" target="EZLxYyoNFG_LbMSAUpIx-157">
          <mxGeometry width="50" height="50" relative="1" as="geometry">
            <mxPoint x="1650" y="962" as="sourcePoint" />
            <mxPoint x="1760" y="882" as="targetPoint" />
          </mxGeometry>
        </mxCell>
        <mxCell id="EZLxYyoNFG_LbMSAUpIx-167" value="" style="edgeStyle=orthogonalEdgeStyle;rounded=0;orthogonalLoop=1;jettySize=auto;html=1;" edge="1" parent="WIyWlLk6GJQsqaUBKTNV-1" source="EZLxYyoNFG_LbMSAUpIx-157" target="EZLxYyoNFG_LbMSAUpIx-166">
          <mxGeometry relative="1" as="geometry" />
        </mxCell>
        <mxCell id="EZLxYyoNFG_LbMSAUpIx-157" value="" style="rounded=0;whiteSpace=wrap;html=1;rotation=-90;" vertex="1" parent="WIyWlLk6GJQsqaUBKTNV-1">
          <mxGeometry x="1790" y="710" width="120" height="10" as="geometry" />
        </mxCell>
        <mxCell id="EZLxYyoNFG_LbMSAUpIx-158" value="Ingreso a cabina 1" style="text;html=1;align=center;verticalAlign=middle;resizable=0;points=[];autosize=1;strokeColor=none;fillColor=none;" vertex="1" parent="WIyWlLk6GJQsqaUBKTNV-1">
          <mxGeometry x="1790" y="620" width="120" height="30" as="geometry" />
        </mxCell>
        <mxCell id="EZLxYyoNFG_LbMSAUpIx-169" value="" style="edgeStyle=orthogonalEdgeStyle;rounded=0;orthogonalLoop=1;jettySize=auto;html=1;" edge="1" parent="WIyWlLk6GJQsqaUBKTNV-1" source="EZLxYyoNFG_LbMSAUpIx-160" target="EZLxYyoNFG_LbMSAUpIx-168">
          <mxGeometry relative="1" as="geometry" />
        </mxCell>
        <mxCell id="EZLxYyoNFG_LbMSAUpIx-160" value="" style="rounded=0;whiteSpace=wrap;html=1;rotation=-90;" vertex="1" parent="WIyWlLk6GJQsqaUBKTNV-1">
          <mxGeometry x="1790" y="987.0033333333334" width="120" height="10" as="geometry" />
        </mxCell>
        <mxCell id="EZLxYyoNFG_LbMSAUpIx-161" value="" style="endArrow=classic;html=1;rounded=0;exitX=1;exitY=1;exitDx=0;exitDy=0;" edge="1" parent="WIyWlLk6GJQsqaUBKTNV-1" source="EZLxYyoNFG_LbMSAUpIx-74" target="EZLxYyoNFG_LbMSAUpIx-162">
          <mxGeometry width="50" height="50" relative="1" as="geometry">
            <mxPoint x="1730" y="1130" as="sourcePoint" />
            <mxPoint x="1750" y="1170" as="targetPoint" />
          </mxGeometry>
        </mxCell>
        <mxCell id="EZLxYyoNFG_LbMSAUpIx-171" value="" style="edgeStyle=orthogonalEdgeStyle;rounded=0;orthogonalLoop=1;jettySize=auto;html=1;" edge="1" parent="WIyWlLk6GJQsqaUBKTNV-1" source="EZLxYyoNFG_LbMSAUpIx-162" target="EZLxYyoNFG_LbMSAUpIx-170">
          <mxGeometry relative="1" as="geometry" />
        </mxCell>
        <mxCell id="EZLxYyoNFG_LbMSAUpIx-162" value="" style="rounded=0;whiteSpace=wrap;html=1;rotation=-90;" vertex="1" parent="WIyWlLk6GJQsqaUBKTNV-1">
          <mxGeometry x="1790" y="1230" width="120" height="10" as="geometry" />
        </mxCell>
        <mxCell id="EZLxYyoNFG_LbMSAUpIx-163" value="Ingreso a cabina 1" style="text;html=1;align=center;verticalAlign=middle;resizable=0;points=[];autosize=1;strokeColor=none;fillColor=none;" vertex="1" parent="WIyWlLk6GJQsqaUBKTNV-1">
          <mxGeometry x="1790" y="899.67" width="120" height="30" as="geometry" />
        </mxCell>
        <mxCell id="EZLxYyoNFG_LbMSAUpIx-164" value="Ingreso a cabina 1" style="text;html=1;align=center;verticalAlign=middle;resizable=0;points=[];autosize=1;strokeColor=none;fillColor=none;" vertex="1" parent="WIyWlLk6GJQsqaUBKTNV-1">
          <mxGeometry x="1790" y="1139" width="120" height="30" as="geometry" />
        </mxCell>
        <mxCell id="EZLxYyoNFG_LbMSAUpIx-175" style="edgeStyle=orthogonalEdgeStyle;rounded=0;orthogonalLoop=1;jettySize=auto;html=1;exitX=1;exitY=0.5;exitDx=0;exitDy=0;" edge="1" parent="WIyWlLk6GJQsqaUBKTNV-1" source="EZLxYyoNFG_LbMSAUpIx-166" target="EZLxYyoNFG_LbMSAUpIx-176">
          <mxGeometry relative="1" as="geometry">
            <mxPoint x="2200" y="715.7777777777778" as="targetPoint" />
          </mxGeometry>
        </mxCell>
        <mxCell id="EZLxYyoNFG_LbMSAUpIx-166" value="" style="ellipse;whiteSpace=wrap;html=1;rounded=0;" vertex="1" parent="WIyWlLk6GJQsqaUBKTNV-1">
          <mxGeometry x="2010" y="675" width="80" height="80" as="geometry" />
        </mxCell>
        <mxCell id="EZLxYyoNFG_LbMSAUpIx-187" style="edgeStyle=orthogonalEdgeStyle;rounded=0;orthogonalLoop=1;jettySize=auto;html=1;exitX=1;exitY=0.5;exitDx=0;exitDy=0;entryX=0.5;entryY=0;entryDx=0;entryDy=0;" edge="1" parent="WIyWlLk6GJQsqaUBKTNV-1" source="EZLxYyoNFG_LbMSAUpIx-168" target="EZLxYyoNFG_LbMSAUpIx-178">
          <mxGeometry relative="1" as="geometry" />
        </mxCell>
        <mxCell id="EZLxYyoNFG_LbMSAUpIx-168" value="" style="ellipse;whiteSpace=wrap;html=1;rounded=0;" vertex="1" parent="WIyWlLk6GJQsqaUBKTNV-1">
          <mxGeometry x="2010" y="952.0033333333334" width="80" height="80" as="geometry" />
        </mxCell>
        <mxCell id="EZLxYyoNFG_LbMSAUpIx-188" style="edgeStyle=orthogonalEdgeStyle;rounded=0;orthogonalLoop=1;jettySize=auto;html=1;exitX=1;exitY=0.5;exitDx=0;exitDy=0;entryX=0.5;entryY=0;entryDx=0;entryDy=0;" edge="1" parent="WIyWlLk6GJQsqaUBKTNV-1" source="EZLxYyoNFG_LbMSAUpIx-170" target="EZLxYyoNFG_LbMSAUpIx-180">
          <mxGeometry relative="1" as="geometry" />
        </mxCell>
        <mxCell id="EZLxYyoNFG_LbMSAUpIx-170" value="" style="ellipse;whiteSpace=wrap;html=1;rounded=0;" vertex="1" parent="WIyWlLk6GJQsqaUBKTNV-1">
          <mxGeometry x="2010" y="1195" width="80" height="80" as="geometry" />
        </mxCell>
        <mxCell id="EZLxYyoNFG_LbMSAUpIx-172" value="Esperando en cabina 1" style="text;html=1;align=center;verticalAlign=middle;resizable=0;points=[];autosize=1;strokeColor=none;fillColor=none;" vertex="1" parent="WIyWlLk6GJQsqaUBKTNV-1">
          <mxGeometry x="1975" y="768" width="150" height="30" as="geometry" />
        </mxCell>
        <mxCell id="EZLxYyoNFG_LbMSAUpIx-173" value="Esperando en cabina 2" style="text;html=1;align=center;verticalAlign=middle;resizable=0;points=[];autosize=1;strokeColor=none;fillColor=none;" vertex="1" parent="WIyWlLk6GJQsqaUBKTNV-1">
          <mxGeometry x="1970" y="1057" width="150" height="30" as="geometry" />
        </mxCell>
        <mxCell id="EZLxYyoNFG_LbMSAUpIx-174" value="Esperando en cabina 3" style="text;html=1;align=center;verticalAlign=middle;resizable=0;points=[];autosize=1;strokeColor=none;fillColor=none;" vertex="1" parent="WIyWlLk6GJQsqaUBKTNV-1">
          <mxGeometry x="1970" y="1290" width="150" height="30" as="geometry" />
        </mxCell>
        <mxCell id="EZLxYyoNFG_LbMSAUpIx-176" value="" style="rounded=0;whiteSpace=wrap;html=1;rotation=-90;" vertex="1" parent="WIyWlLk6GJQsqaUBKTNV-1">
          <mxGeometry x="2160" y="709.9977777777779" width="120" height="10" as="geometry" />
        </mxCell>
        <mxCell id="EZLxYyoNFG_LbMSAUpIx-177" value="Se sale de cabina 1" style="text;html=1;align=center;verticalAlign=middle;resizable=0;points=[];autosize=1;strokeColor=none;fillColor=none;" vertex="1" parent="WIyWlLk6GJQsqaUBKTNV-1">
          <mxGeometry x="2160" y="620" width="130" height="30" as="geometry" />
        </mxCell>
        <mxCell id="EZLxYyoNFG_LbMSAUpIx-204" style="edgeStyle=orthogonalEdgeStyle;rounded=0;orthogonalLoop=1;jettySize=auto;html=1;exitX=0.5;exitY=1;exitDx=0;exitDy=0;entryX=0;entryY=0.5;entryDx=0;entryDy=0;" edge="1" parent="WIyWlLk6GJQsqaUBKTNV-1" source="EZLxYyoNFG_LbMSAUpIx-178" target="EZLxYyoNFG_LbMSAUpIx-201">
          <mxGeometry relative="1" as="geometry" />
        </mxCell>
        <mxCell id="EZLxYyoNFG_LbMSAUpIx-178" value="" style="rounded=0;whiteSpace=wrap;html=1;rotation=-90;" vertex="1" parent="WIyWlLk6GJQsqaUBKTNV-1">
          <mxGeometry x="2165" y="987.0077777777778" width="120" height="10" as="geometry" />
        </mxCell>
        <mxCell id="EZLxYyoNFG_LbMSAUpIx-179" value="Se sale de cabina 1" style="text;html=1;align=center;verticalAlign=middle;resizable=0;points=[];autosize=1;strokeColor=none;fillColor=none;" vertex="1" parent="WIyWlLk6GJQsqaUBKTNV-1">
          <mxGeometry x="2160" y="910" width="130" height="30" as="geometry" />
        </mxCell>
        <mxCell id="EZLxYyoNFG_LbMSAUpIx-180" value="" style="rounded=0;whiteSpace=wrap;html=1;rotation=-90;" vertex="1" parent="WIyWlLk6GJQsqaUBKTNV-1">
          <mxGeometry x="2165" y="1229.9977777777779" width="120" height="10" as="geometry" />
        </mxCell>
        <mxCell id="EZLxYyoNFG_LbMSAUpIx-181" value="Se sale de cabina 1" style="text;html=1;align=center;verticalAlign=middle;resizable=0;points=[];autosize=1;strokeColor=none;fillColor=none;" vertex="1" parent="WIyWlLk6GJQsqaUBKTNV-1">
          <mxGeometry x="2160" y="1139" width="130" height="30" as="geometry" />
        </mxCell>
        <mxCell id="EZLxYyoNFG_LbMSAUpIx-189" value="" style="shape=mxgraph.cisco.misc.token;html=1;pointerEvents=1;dashed=0;fillColor=#036897;strokeColor=#ffffff;strokeWidth=2;verticalLabelPosition=bottom;verticalAlign=top;align=center;outlineConnect=0;" vertex="1" parent="WIyWlLk6GJQsqaUBKTNV-1">
          <mxGeometry x="2030" y="560" width="20" height="20" as="geometry" />
        </mxCell>
        <mxCell id="EZLxYyoNFG_LbMSAUpIx-190" value="" style="ellipse;whiteSpace=wrap;html=1;aspect=fixed;fillColor=none;" vertex="1" parent="WIyWlLk6GJQsqaUBKTNV-1">
          <mxGeometry x="2000" y="530" width="80" height="80" as="geometry" />
        </mxCell>
        <mxCell id="EZLxYyoNFG_LbMSAUpIx-191" value="" style="endArrow=none;html=1;rounded=0;exitX=1;exitY=0.5;exitDx=0;exitDy=0;startArrow=classic;startFill=1;endFill=0;" edge="1" parent="WIyWlLk6GJQsqaUBKTNV-1" source="EZLxYyoNFG_LbMSAUpIx-190">
          <mxGeometry width="50" height="50" relative="1" as="geometry">
            <mxPoint x="2130" y="590" as="sourcePoint" />
            <mxPoint x="2180" y="610" as="targetPoint" />
          </mxGeometry>
        </mxCell>
        <mxCell id="EZLxYyoNFG_LbMSAUpIx-192" value="" style="endArrow=classic;html=1;rounded=0;exitX=0;exitY=0.5;exitDx=0;exitDy=0;" edge="1" parent="WIyWlLk6GJQsqaUBKTNV-1" source="EZLxYyoNFG_LbMSAUpIx-190">
          <mxGeometry width="50" height="50" relative="1" as="geometry">
            <mxPoint x="1930" y="610" as="sourcePoint" />
            <mxPoint x="1920" y="640" as="targetPoint" />
          </mxGeometry>
        </mxCell>
        <mxCell id="EZLxYyoNFG_LbMSAUpIx-193" value="" style="shape=mxgraph.cisco.misc.token;html=1;pointerEvents=1;dashed=0;fillColor=#036897;strokeColor=#ffffff;strokeWidth=2;verticalLabelPosition=bottom;verticalAlign=top;align=center;outlineConnect=0;" vertex="1" parent="WIyWlLk6GJQsqaUBKTNV-1">
          <mxGeometry x="2035" y="830" width="20" height="20" as="geometry" />
        </mxCell>
        <mxCell id="EZLxYyoNFG_LbMSAUpIx-194" value="" style="ellipse;whiteSpace=wrap;html=1;aspect=fixed;fillColor=none;" vertex="1" parent="WIyWlLk6GJQsqaUBKTNV-1">
          <mxGeometry x="2005" y="800" width="80" height="80" as="geometry" />
        </mxCell>
        <mxCell id="EZLxYyoNFG_LbMSAUpIx-195" value="" style="endArrow=none;html=1;rounded=0;exitX=1;exitY=0.5;exitDx=0;exitDy=0;startArrow=classic;startFill=1;endFill=0;" edge="1" parent="WIyWlLk6GJQsqaUBKTNV-1" source="EZLxYyoNFG_LbMSAUpIx-194">
          <mxGeometry width="50" height="50" relative="1" as="geometry">
            <mxPoint x="2135" y="860" as="sourcePoint" />
            <mxPoint x="2185" y="880" as="targetPoint" />
          </mxGeometry>
        </mxCell>
        <mxCell id="EZLxYyoNFG_LbMSAUpIx-196" value="" style="endArrow=classic;html=1;rounded=0;exitX=0;exitY=0.5;exitDx=0;exitDy=0;" edge="1" parent="WIyWlLk6GJQsqaUBKTNV-1" source="EZLxYyoNFG_LbMSAUpIx-194">
          <mxGeometry width="50" height="50" relative="1" as="geometry">
            <mxPoint x="1935" y="880" as="sourcePoint" />
            <mxPoint x="1925" y="910" as="targetPoint" />
          </mxGeometry>
        </mxCell>
        <mxCell id="EZLxYyoNFG_LbMSAUpIx-197" value="" style="shape=mxgraph.cisco.misc.token;html=1;pointerEvents=1;dashed=0;fillColor=#036897;strokeColor=#ffffff;strokeWidth=2;verticalLabelPosition=bottom;verticalAlign=top;align=center;outlineConnect=0;" vertex="1" parent="WIyWlLk6GJQsqaUBKTNV-1">
          <mxGeometry x="2032.5" y="1115" width="20" height="20" as="geometry" />
        </mxCell>
        <mxCell id="EZLxYyoNFG_LbMSAUpIx-198" value="" style="ellipse;whiteSpace=wrap;html=1;aspect=fixed;fillColor=none;" vertex="1" parent="WIyWlLk6GJQsqaUBKTNV-1">
          <mxGeometry x="2002.5" y="1085" width="80" height="80" as="geometry" />
        </mxCell>
        <mxCell id="EZLxYyoNFG_LbMSAUpIx-199" value="" style="endArrow=none;html=1;rounded=0;exitX=1;exitY=0.5;exitDx=0;exitDy=0;startArrow=classic;startFill=1;endFill=0;" edge="1" parent="WIyWlLk6GJQsqaUBKTNV-1" source="EZLxYyoNFG_LbMSAUpIx-198">
          <mxGeometry width="50" height="50" relative="1" as="geometry">
            <mxPoint x="2132.5" y="1145" as="sourcePoint" />
            <mxPoint x="2182.5" y="1165" as="targetPoint" />
          </mxGeometry>
        </mxCell>
        <mxCell id="EZLxYyoNFG_LbMSAUpIx-200" value="" style="endArrow=classic;html=1;rounded=0;exitX=0;exitY=0.5;exitDx=0;exitDy=0;" edge="1" parent="WIyWlLk6GJQsqaUBKTNV-1" source="EZLxYyoNFG_LbMSAUpIx-198">
          <mxGeometry width="50" height="50" relative="1" as="geometry">
            <mxPoint x="1932.5" y="1165" as="sourcePoint" />
            <mxPoint x="1880" y="1170" as="targetPoint" />
          </mxGeometry>
        </mxCell>
        <mxCell id="EZLxYyoNFG_LbMSAUpIx-206" style="edgeStyle=orthogonalEdgeStyle;rounded=0;orthogonalLoop=1;jettySize=auto;html=1;exitX=1;exitY=0.5;exitDx=0;exitDy=0;entryX=0.5;entryY=0;entryDx=0;entryDy=0;" edge="1" parent="WIyWlLk6GJQsqaUBKTNV-1" source="EZLxYyoNFG_LbMSAUpIx-201" target="EZLxYyoNFG_LbMSAUpIx-207">
          <mxGeometry relative="1" as="geometry">
            <mxPoint x="2669.9999999999995" y="992.666666666667" as="targetPoint" />
          </mxGeometry>
        </mxCell>
        <mxCell id="EZLxYyoNFG_LbMSAUpIx-201" value="" style="ellipse;whiteSpace=wrap;html=1;aspect=fixed;" vertex="1" parent="WIyWlLk6GJQsqaUBKTNV-1">
          <mxGeometry x="2480" y="957" width="70" height="70" as="geometry" />
        </mxCell>
        <mxCell id="EZLxYyoNFG_LbMSAUpIx-202" value="Continuar por ruta 2" style="text;html=1;align=center;verticalAlign=middle;resizable=0;points=[];autosize=1;strokeColor=none;fillColor=none;" vertex="1" parent="WIyWlLk6GJQsqaUBKTNV-1">
          <mxGeometry x="2455" y="1040" width="130" height="30" as="geometry" />
        </mxCell>
        <mxCell id="EZLxYyoNFG_LbMSAUpIx-203" value="" style="endArrow=classic;html=1;rounded=0;exitX=0.5;exitY=1;exitDx=0;exitDy=0;entryX=0;entryY=0;entryDx=0;entryDy=0;" edge="1" parent="WIyWlLk6GJQsqaUBKTNV-1" source="EZLxYyoNFG_LbMSAUpIx-176" target="EZLxYyoNFG_LbMSAUpIx-201">
          <mxGeometry width="50" height="50" relative="1" as="geometry">
            <mxPoint x="2330" y="800" as="sourcePoint" />
            <mxPoint x="2380" y="750" as="targetPoint" />
          </mxGeometry>
        </mxCell>
        <mxCell id="EZLxYyoNFG_LbMSAUpIx-205" value="" style="endArrow=classic;html=1;rounded=0;exitX=0.5;exitY=1;exitDx=0;exitDy=0;entryX=0;entryY=1;entryDx=0;entryDy=0;" edge="1" parent="WIyWlLk6GJQsqaUBKTNV-1" source="EZLxYyoNFG_LbMSAUpIx-180" target="EZLxYyoNFG_LbMSAUpIx-201">
          <mxGeometry width="50" height="50" relative="1" as="geometry">
            <mxPoint x="2270" y="1240" as="sourcePoint" />
            <mxPoint x="2320" y="1190" as="targetPoint" />
          </mxGeometry>
        </mxCell>
        <mxCell id="EZLxYyoNFG_LbMSAUpIx-207" value="" style="rounded=0;whiteSpace=wrap;html=1;rotation=-90;" vertex="1" parent="WIyWlLk6GJQsqaUBKTNV-1">
          <mxGeometry x="2640" y="987.01" width="120" height="10" as="geometry" />
        </mxCell>
        <mxCell id="EZLxYyoNFG_LbMSAUpIx-208" value="Llega a la costa por ruta 2" style="text;html=1;align=center;verticalAlign=middle;resizable=0;points=[];autosize=1;strokeColor=none;fillColor=none;" vertex="1" parent="WIyWlLk6GJQsqaUBKTNV-1">
          <mxGeometry x="2610" y="888" width="160" height="30" as="geometry" />
        </mxCell>
      </root>
    </mxGraphModel>
  </diagram>
</mxfile>
